<svg width="24" height="20" viewBox="0 0 24 20" fill="none" xmlns="http://www.w3.org/2000/svg">
<path d="M6 0L7.171 0.203C6.816 2.448 7.962 2.722 9.87 3.077C11.338 3.35 13 3.699 13 6.361V7H11.817V6.361C11.817 4.805 11.337 4.552 9.653 4.239C7.07 3.759 5.557 2.848 6 0V0ZM24 14C24 17.312 21.393 20 18.175 20C16.664 20 15.289 19.405 14.254 18.435C12.943 17.206 10.976 17.303 9.704 18.473C8.674 19.421 7.315 20 5.825 20C2.608 20 0 17.312 0 14C0 10.688 2.608 8 5.825 8L18.388 8.007C21.506 8.123 24 10.762 24 14ZM9 13H7V11H5V13H3V15H5V17H7V15H9V13ZM13 14H11V15H13V14ZM17 12C17 12.552 17.447 13 18 13C18.553 13 19 12.552 19 12C19 11.448 18.553 11 18 11C17.447 11 17 11.448 17 12ZM17 14C17 13.448 16.553 13 16 13C15.447 13 15 13.448 15 14C15 14.552 15.447 15 16 15C16.553 15 17 14.552 17 14ZM19 16C19 15.448 18.553 15 18 15C17.447 15 17 15.448 17 16C17 16.552 17.447 17 18 17C18.553 17 19 16.552 19 16ZM21 14C21 13.448 20.553 13 20 13C19.447 13 19 13.448 19 14C19 14.552 19.447 15 20 15C20.553 15 21 14.552 21 14Z" fill="#33CC95"/>
</svg>
