<svg width="128" height="40" viewBox="0 0 128 40" fill="none" xmlns="http://www.w3.org/2000/svg">
<path d="M34.1422 5.85781C30.3647 2.08031 25.3422 0 20 0C14.6578 0 9.63531 2.08031 5.85781 5.85781C2.08031 9.63531 0 14.6578 0 20C0 25.3422 2.08039 30.3646 5.85781 34.1422C9.63523 37.9198 14.6578 40 20 40C25.3422 40 30.3647 37.9197 34.1422 34.1422C37.9197 30.3647 40 25.3422 40 20C40 14.6578 37.9196 9.63539 34.1422 5.85781Z" fill="#33CC95"/>
<path d="M57.9266 28L57.7826 27.064C58.6306 26.92 59.1426 26.76 59.3186 26.584C59.5106 26.408 59.6066 26.072 59.6066 25.576V13.792C59.6066 13.296 59.5106 12.96 59.3186 12.784C59.1426 12.608 58.6306 12.448 57.7826 12.304L57.9266 11.368H65.4386C66.8146 11.368 68.0066 11.592 69.0146 12.04C70.0226 12.472 70.8066 13.072 71.3666 13.84C72.4546 15.312 72.9986 17.088 72.9986 19.168C72.9986 21.456 72.3906 23.448 71.1746 25.144C70.5666 26.008 69.7186 26.704 68.6306 27.232C67.5586 27.744 66.3186 28 64.9106 28H57.9266ZM61.9346 25.768C61.9346 26.12 62.1026 26.328 62.4386 26.392C63.5586 26.616 64.4066 26.728 64.9826 26.728C66.7586 26.728 68.0946 26.096 68.9906 24.832C69.8866 23.568 70.3346 21.88 70.3346 19.768C70.3346 18.44 70.1586 17.288 69.8066 16.312C69.4706 15.336 69.0146 14.592 68.4386 14.08C67.3506 13.12 66.1666 12.64 64.8866 12.64H61.9346V25.768ZM78.3239 26.728C78.3239 27.144 78.1879 27.496 77.9159 27.784C77.6439 28.072 77.2919 28.216 76.8599 28.216C76.4279 28.216 76.0759 28.096 75.8039 27.856C75.5319 27.6 75.3959 27.256 75.3959 26.824C75.3959 26.376 75.5239 26.008 75.7799 25.72C76.0519 25.432 76.4039 25.288 76.8359 25.288C77.8279 25.288 78.3239 25.768 78.3239 26.728ZM99.8536 27.112C99.3256 27.384 98.5576 27.64 97.5496 27.88C96.5576 28.104 95.5416 28.216 94.5016 28.216C91.8936 28.216 89.9256 27.448 88.5976 25.912C87.2696 24.376 86.6056 22.424 86.6056 20.056C86.6056 18.232 86.9816 16.608 87.7336 15.184C88.6136 13.504 89.9336 12.336 91.6936 11.68C92.6696 11.328 93.6856 11.152 94.7416 11.152C95.7976 11.152 96.8136 11.232 97.7896 11.392C98.7656 11.552 99.4056 11.696 99.7096 11.824C99.8056 12.416 99.8536 13.04 99.8536 13.696C99.8536 14.336 99.8376 15.056 99.8056 15.856L98.4376 16.048C98.0856 14.192 97.7736 13.168 97.5016 12.976C97.3576 12.864 96.9816 12.744 96.3736 12.616C95.7816 12.488 95.1896 12.424 94.5976 12.424C92.8376 12.424 91.5096 13.072 90.6136 14.368C89.7176 15.664 89.2696 17.368 89.2696 19.48C89.2696 21.976 89.8376 23.832 90.9736 25.048C92.1096 26.264 93.5176 26.872 95.1976 26.872C96.0776 26.872 96.8536 26.744 97.5256 26.488V23.152C97.5256 22.656 97.4296 22.32 97.2376 22.144C97.0616 21.968 96.5496 21.808 95.7016 21.664L95.8456 20.728H101.462L101.558 21.664L100.334 21.952C100.014 22.016 99.8536 22.224 99.8536 22.576V27.112ZM112.472 26.728C112.472 27.144 112.336 27.496 112.064 27.784C111.792 28.072 111.44 28.216 111.008 28.216C110.576 28.216 110.224 28.096 109.952 27.856C109.68 27.6 109.544 27.256 109.544 26.824C109.544 26.376 109.672 26.008 109.928 25.72C110.2 25.432 110.552 25.288 110.984 25.288C111.976 25.288 112.472 25.768 112.472 26.728ZM121.114 28L120.97 27.064C121.818 26.92 122.33 26.76 122.506 26.584C122.698 26.408 122.794 26.072 122.794 25.576V13.792C122.794 13.296 122.698 12.96 122.506 12.784C122.33 12.608 121.818 12.448 120.97 12.304L121.114 11.368H126.994L127.09 12.304L125.602 12.592C125.282 12.656 125.122 12.864 125.122 13.216V26.152C125.122 26.504 125.282 26.712 125.602 26.776L127.09 27.064L126.994 28H121.114Z" fill="white"/>
<path d="M14 8L15.171 8.203C14.816 10.448 15.962 10.722 17.87 11.077C19.338 11.35 21 11.699 21 14.361V15H19.817V14.361C19.817 12.805 19.337 12.552 17.653 12.239C15.07 11.759 13.557 10.848 14 8ZM32 22C32 25.312 29.393 28 26.175 28C24.664 28 23.289 27.405 22.254 26.435C20.943 25.206 18.976 25.303 17.704 26.473C16.674 27.421 15.315 28 13.825 28C10.608 28 8 25.312 8 22C8 18.688 10.608 16 13.825 16L26.388 16.007C29.506 16.123 32 18.762 32 22ZM17 21H15V19H13V21H11V23H13V25H15V23H17V21ZM21 22H19V23H21V22ZM25 20C25 20.552 25.447 21 26 21C26.553 21 27 20.552 27 20C27 19.448 26.553 19 26 19C25.447 19 25 19.448 25 20ZM25 22C25 21.448 24.553 21 24 21C23.447 21 23 21.448 23 22C23 22.552 23.447 23 24 23C24.553 23 25 22.552 25 22ZM27 24C27 23.448 26.553 23 26 23C25.447 23 25 23.448 25 24C25 24.552 25.447 25 26 25C26.553 25 27 24.552 27 24ZM29 22C29 21.448 28.553 21 28 21C27.447 21 27 21.448 27 22C27 22.552 27.447 23 28 23C28.553 23 29 22.552 29 22Z" fill="#F0F2F5"/>
</svg>
